<svg width="628" height="165" viewBox="0 0 628 165" fill="none" xmlns="http://www.w3.org/2000/svg">
<path d="M5.32102 38.4972H7.66477C13.2045 38.4972 14.8381 35.5142 16.3295 32.1051L28.9006 1.63636H24.2131L15.0511 24.2216L5.03693 1.63636H0.278409L12.8494 29.4773L12.2812 30.8267C11.5 32.6023 10.2216 34.3778 7.59375 34.3778H5.32102V38.4972ZM51.4947 10.7273H47.3043V24.5589C45.2802 25.1449 43.2028 25.5 40.6992 25.5C37.2901 25.5 34.6623 23.5824 34.6623 19.392V10.6562H30.4719V19.392C30.4719 26.0682 34.5202 29.4062 40.6992 29.4062C43.2738 29.4062 45.3335 29.0689 47.3043 28.483V38H51.4947V10.7273ZM70.6175 38.5682C76.1573 38.5682 80.2056 35.7983 81.484 31.679L77.4357 30.5426C76.3704 33.3835 73.9023 34.804 70.6175 34.804C65.6992 34.804 62.3079 31.6257 62.1126 25.7841H81.9102V24.0085C81.9102 13.8523 75.8732 10.3722 70.1914 10.3722C62.805 10.3722 57.9045 16.196 57.9045 24.5767C57.9045 32.9574 62.734 38.5682 70.6175 38.5682ZM62.1126 22.1619C62.3967 17.9183 65.3974 14.1364 70.1914 14.1364C74.7369 14.1364 77.6488 17.5455 77.6488 22.1619H62.1126ZM108.526 0.5C107.194 1.61861 105.206 1.61861 102.418 1.60085C101.512 1.60085 100.518 1.60085 99.435 1.63636C91.1254 1.84943 87.006 8.17045 87.006 20.3153V23.2273C87.006 33.3125 91.9066 38.5682 99.2219 38.5682C106.52 38.5682 111.367 33.277 111.367 24.7188C111.367 16.125 106.449 11.5795 100.074 11.5795C96.3278 11.5795 92.8299 13.142 90.9833 16.5511H90.6282C91.1964 9.51988 93.8242 5.75568 99.506 5.54261C104.549 5.32954 108.171 5.47159 110.657 3.05682L108.526 0.5ZM99.2219 34.804C94.2504 34.804 91.1964 30.8267 91.1964 24.7188C91.2852 18.7528 94.2859 15.3438 99.1509 15.3438C104.14 15.3438 107.176 18.7528 107.176 24.7188C107.176 30.8622 104.158 34.804 99.2219 34.804ZM121.967 10.7273H117.777V38H121.967V26.3523H135.035V38H139.225V10.7273H135.035V22.446H121.967V10.7273ZM151.069 20.5994V10.7273H146.878V38H158.313C164.705 38 168.185 34.0938 168.185 29.1932C168.185 24.2216 164.705 20.5994 158.313 20.5994H151.069ZM172.517 38H176.708V10.7273H172.517V38ZM151.069 24.5057H158.313C161.633 24.5057 163.995 26.5298 163.995 29.4062C163.995 32.1584 161.633 34.0938 158.313 34.0938H151.069V24.5057ZM188.569 31.821V10.7273H184.378V38H189.279L202.347 16.9062V38H206.537V10.7273H201.708L188.569 31.821ZM198.938 1.63636C198.938 3.48295 197.944 5.11648 195.458 5.11648C192.972 5.11648 192.049 3.48295 192.049 1.63636H188.142C188.142 5.47159 190.983 8.17045 195.458 8.17045C200.003 8.17045 202.844 5.47159 202.844 1.63636H198.938ZM228.275 38H232.465V14.6335H245.533V38H249.724V10.7273H228.275V38ZM257.376 48.2273H261.567V33.8097H261.922C262.845 35.3011 264.621 38.5682 269.876 38.5682C276.694 38.5682 281.453 33.0994 281.453 24.4347C281.453 15.8409 276.694 10.3722 269.805 10.3722C264.479 10.3722 262.845 13.6392 261.922 15.0597H261.425V10.7273H257.376V48.2273ZM261.496 24.3636C261.496 18.2557 264.194 14.1364 269.308 14.1364C274.635 14.1364 277.263 18.6108 277.263 24.3636C277.263 30.1875 274.564 34.804 269.308 34.804C264.265 34.804 261.496 30.5426 261.496 24.3636ZM298.925 38.5682C306.311 38.5682 311.282 32.9574 311.282 24.5057C311.282 15.983 306.311 10.3722 298.925 10.3722C291.538 10.3722 286.567 15.983 286.567 24.5057C286.567 32.9574 291.538 38.5682 298.925 38.5682ZM298.925 34.804C293.314 34.804 290.757 29.9744 290.757 24.5057C290.757 19.0369 293.314 14.1364 298.925 14.1364C304.535 14.1364 307.092 19.0369 307.092 24.5057C307.092 29.9744 304.535 34.804 298.925 34.804ZM329.114 38.5682C334.653 38.5682 338.702 35.7983 339.98 31.679L335.932 30.5426C334.866 33.3835 332.398 34.804 329.114 34.804C324.195 34.804 320.804 31.6257 320.609 25.7841H340.406V24.0085C340.406 13.8523 334.369 10.3722 328.688 10.3722C321.301 10.3722 316.401 16.196 316.401 24.5767C316.401 32.9574 321.23 38.5682 329.114 38.5682ZM320.609 22.1619C320.893 17.9183 323.893 14.1364 328.688 14.1364C333.233 14.1364 336.145 17.5455 336.145 22.1619H320.609ZM346.781 38H350.971V26.4943H354.735L363.684 38H369.082L357.931 23.8665L368.94 10.7273H363.542L353.741 22.5881H350.971V10.7273H346.781V38ZM372.074 14.6335H381.093V38H385.284V14.6335H394.233V10.7273H372.074V14.6335ZM425.487 38.5682C431.524 38.5682 435.501 34.875 436.211 30.0455H432.021C431.24 33.0284 428.754 34.804 425.487 34.804C420.515 34.804 417.319 30.6847 417.319 24.3636C417.319 18.1847 420.586 14.1364 425.487 14.1364C429.18 14.1364 431.382 16.4091 432.021 18.8949H436.211C435.501 13.7812 431.169 10.3722 425.416 10.3722C418.03 10.3722 413.129 16.196 413.129 24.5057C413.129 32.6733 417.817 38.5682 425.487 38.5682ZM440.189 14.6335H449.209V38H453.399V14.6335H462.348V10.7273H440.189V14.6335ZM471.159 48.1562C474.941 48.1562 477.622 46.1499 479.185 41.9773L490.797 10.7983L486.216 10.7273L478.688 32.4602H478.403L470.875 10.7273H466.33L476.415 38.142L475.634 40.2727C474.142 44.3565 472.224 44.7472 469.17 43.9659L468.105 47.6591C468.531 47.8722 469.739 48.1562 471.159 48.1562ZM491.134 45.8125H495.325V38H515.495V45.8125H519.685V34.0938H515.495V10.7273H498.165L497.242 21.5227C496.585 29.1577 495.609 31.7855 493.407 34.0938H491.134V45.8125ZM498.165 34.0938C500.083 31.5724 500.776 27.2223 501.362 21.5227L502.072 14.6335H511.305V34.0938H498.165ZM536.682 38.5682C542.222 38.5682 546.27 35.7983 547.548 31.679L543.5 30.5426C542.435 33.3835 539.967 34.804 536.682 34.804C531.764 34.804 528.372 31.6257 528.177 25.7841H547.975V24.0085C547.975 13.8523 541.938 10.3722 536.256 10.3722C528.869 10.3722 523.969 16.196 523.969 24.5767C523.969 32.9574 528.798 38.5682 536.682 38.5682ZM528.177 22.1619C528.461 17.9183 531.462 14.1364 536.256 14.1364C540.801 14.1364 543.713 17.5455 543.713 22.1619H528.177ZM558.539 10.7273H554.349V38H558.539V26.3523H571.607V38H575.798V10.7273H571.607V22.446H558.539V10.7273ZM579.74 14.6335H588.759V38H592.95V14.6335H601.899V10.7273H579.74V14.6335ZM614.621 38.6392C619.379 38.6392 621.865 36.0824 622.717 34.3068H622.93V38H627.121V20.0312C627.121 11.3665 620.515 10.3722 617.035 10.3722C612.916 10.3722 608.229 11.7926 606.098 16.7642L610.075 18.1847C610.998 16.196 613.182 14.0653 617.177 14.0653C621.03 14.0653 622.93 16.1072 622.93 19.6051V19.7472C622.93 21.7713 620.871 21.5938 615.899 22.233C610.839 22.8899 605.317 24.0085 605.317 30.2585C605.317 35.5852 609.436 38.6392 614.621 38.6392ZM615.26 34.875C611.922 34.875 609.507 33.3835 609.507 30.4716C609.507 27.2756 612.419 26.2812 615.686 25.8551C617.461 25.642 622.22 25.1449 622.93 24.2926V28.1278C622.93 31.5369 620.231 34.875 615.26 34.875ZM13.9148 105.304H18.1051V96.5682C25.4915 96.5682 30.4631 90.9574 30.4631 82.5057C30.4631 73.983 25.4915 68.3722 18.1051 68.3722V59.6364H13.9148V68.3722C6.52841 68.3722 1.55682 73.983 1.55682 82.5057C1.55682 90.9574 6.52841 96.5682 13.9148 96.5682V105.304ZM18.1051 92.804V72.1364C23.7159 72.1364 26.2727 77.0369 26.2727 82.5057C26.2727 87.9744 23.7159 92.804 18.1051 92.804ZM13.9148 92.804C8.30398 92.804 5.74716 87.9744 5.74716 82.5057C5.74716 77.0369 8.30398 72.1364 13.9148 72.1364V92.804ZM44.894 96.6392C49.6525 96.6392 52.1383 94.0824 52.9906 92.3068H53.2037V96H57.394V78.0312C57.394 69.3665 50.7889 68.3722 47.3088 68.3722C43.1895 68.3722 38.502 69.7926 36.3713 74.7642L40.3485 76.1847C41.2718 74.196 43.4558 72.0653 47.4508 72.0653C51.3038 72.0653 53.2037 74.1072 53.2037 77.6051V77.7472C53.2037 79.7713 51.144 79.5938 46.1724 80.233C41.112 80.8899 35.59 82.0085 35.59 88.2585C35.59 93.5852 39.7093 96.6392 44.894 96.6392ZM45.5332 92.875C42.1951 92.875 39.7804 91.3835 39.7804 88.4716C39.7804 85.2756 42.6923 84.2812 45.9593 83.8551C47.7349 83.642 52.4934 83.1449 53.2037 82.2926V86.1278C53.2037 89.5369 50.5048 92.875 45.5332 92.875ZM65.0423 96H69.2326V84.4943H72.9968L81.9457 96H87.3434L76.1928 81.8665L87.2013 68.7273H81.8036L72.0025 80.5881H69.2326V68.7273H65.0423V96ZM94.5966 106.156C98.3786 106.156 101.06 104.15 102.622 99.9773L114.234 68.7983L109.653 68.7273L102.125 90.4602H101.841L94.3125 68.7273H89.767L99.8523 96.142L99.071 98.2727C97.5795 102.357 95.6619 102.747 92.608 101.966L91.5426 105.659C91.9688 105.872 93.1761 106.156 94.5966 106.156ZM115.069 96H116.489C122.526 96 124.266 91.3125 124.657 82.3636L125.083 72.6335H135.097V96H139.288V68.7273H121.106L120.609 80.8011C120.254 89.9631 119.33 92.0938 116.063 92.0938H115.069V96ZM151.166 78.5994V68.7273H146.976V96H158.411C164.803 96 168.283 92.0938 168.283 87.1932C168.283 82.2216 164.803 78.5994 158.411 78.5994H151.166ZM151.166 82.5057H158.411C161.731 82.5057 164.092 84.5298 164.092 87.4062C164.092 90.1584 161.731 92.0938 158.411 92.0938H151.166V82.5057ZM170.267 72.6335H179.287V96H183.477V72.6335H192.426V68.7273H170.267V72.6335ZM208.557 96.5682C214.097 96.5682 218.145 93.7983 219.423 89.679L215.375 88.5426C214.31 91.3835 211.842 92.804 208.557 92.804C203.639 92.804 200.247 89.6257 200.052 83.7841H219.85V82.0085C219.85 71.8523 213.813 68.3722 208.131 68.3722C200.744 68.3722 195.844 74.196 195.844 82.5767C195.844 90.9574 200.673 96.5682 208.557 96.5682ZM200.052 80.1619C200.336 75.9183 203.337 72.1364 208.131 72.1364C212.676 72.1364 215.588 75.5455 215.588 80.1619H200.052ZM223.685 72.6335H232.705V96H236.895V72.6335H245.844V68.7273H223.685V72.6335ZM258.566 96.6392C263.324 96.6392 265.81 94.0824 266.662 92.3068H266.876V96H271.066V78.0312C271.066 69.3665 264.461 68.3722 260.981 68.3722C256.861 68.3722 252.174 69.7926 250.043 74.7642L254.02 76.1847C254.944 74.196 257.128 72.0653 261.123 72.0653C264.976 72.0653 266.876 74.1072 266.876 77.6051V77.7472C266.876 79.7713 264.816 79.5938 259.844 80.233C254.784 80.8899 249.262 82.0085 249.262 88.2585C249.262 93.5852 253.381 96.6392 258.566 96.6392ZM259.205 92.875C255.867 92.875 253.452 91.3835 253.452 88.4716C253.452 85.2756 256.364 84.2812 259.631 83.8551C261.407 83.642 266.165 83.1449 266.876 82.2926V86.1278C266.876 89.5369 264.177 92.875 259.205 92.875ZM3.40341 154H16.5426C25.1364 154 28.6875 149.81 28.6875 144.341C28.6875 138.588 24.7102 135.463 21.3722 135.25V134.895C24.4972 134.043 27.267 131.983 27.267 127.295C27.267 121.969 23.7159 117.636 16.1165 117.636H3.40341V154ZM7.80682 150.094V137.452H16.7557C21.5142 137.452 24.4972 140.648 24.4972 144.341C24.4972 147.537 22.2955 150.094 16.5426 150.094H7.80682ZM7.80682 133.616V121.543H16.1165C20.946 121.543 23.0767 124.099 23.0767 127.295C23.0767 131.131 19.9517 133.616 15.9744 133.616H7.80682ZM46.7894 154.568C52.3292 154.568 56.3775 151.798 57.6559 147.679L53.6076 146.543C52.5423 149.384 50.0742 150.804 46.7894 150.804C41.8711 150.804 38.4798 147.626 38.2844 141.784H58.082V140.009C58.082 129.852 52.0451 126.372 46.3633 126.372C38.9769 126.372 34.0763 132.196 34.0763 140.577C34.0763 148.957 38.9059 154.568 46.7894 154.568ZM38.2844 138.162C38.5685 133.918 41.5692 130.136 46.3633 130.136C50.9087 130.136 53.8207 133.545 53.8207 138.162H38.2844ZM84.6978 116.5C83.3661 117.619 81.3775 117.619 78.5898 117.601C77.6843 117.601 76.69 117.601 75.6069 117.636C67.2972 117.849 63.1779 124.17 63.1779 136.315V139.227C63.1779 149.312 68.0785 154.568 75.3938 154.568C82.6914 154.568 87.5387 149.277 87.5387 140.719C87.5387 132.125 82.6204 127.58 76.2461 127.58C72.4996 127.58 69.0018 129.142 67.1552 132.551H66.8001C67.3683 125.52 69.9961 121.756 75.6779 121.543C80.7205 121.33 84.3427 121.472 86.8285 119.057L84.6978 116.5ZM75.3938 150.804C70.4222 150.804 67.3683 146.827 67.3683 140.719C67.457 134.753 70.4577 131.344 75.3228 131.344C80.3121 131.344 83.3484 134.753 83.3484 140.719C83.3484 146.862 80.3299 150.804 75.3938 150.804ZM109.574 136.457H93.6644V140.364H109.574V136.457ZM116.947 164.227H121.137V149.81H121.492C122.415 151.301 124.191 154.568 129.447 154.568C136.265 154.568 141.023 149.099 141.023 140.435C141.023 131.841 136.265 126.372 129.376 126.372C124.049 126.372 122.415 129.639 121.492 131.06H120.995V126.727H116.947V164.227ZM121.066 140.364C121.066 134.256 123.765 130.136 128.878 130.136C134.205 130.136 136.833 134.611 136.833 140.364C136.833 146.188 134.134 150.804 128.878 150.804C123.836 150.804 121.066 146.543 121.066 140.364ZM155.441 154.639C160.199 154.639 162.685 152.082 163.537 150.307H163.751V154H167.941V136.031C167.941 127.366 161.336 126.372 157.856 126.372C153.736 126.372 149.049 127.793 146.918 132.764L150.895 134.185C151.819 132.196 154.003 130.065 157.998 130.065C161.851 130.065 163.751 132.107 163.751 135.605V135.747C163.751 137.771 161.691 137.594 156.719 138.233C151.659 138.89 146.137 140.009 146.137 146.259C146.137 151.585 150.256 154.639 155.441 154.639ZM156.08 150.875C152.742 150.875 150.327 149.384 150.327 146.472C150.327 143.276 153.239 142.281 156.506 141.855C158.282 141.642 163.04 141.145 163.751 140.293V144.128C163.751 147.537 161.052 150.875 156.08 150.875ZM173.885 147.04C174.027 151.514 178.306 154.568 184.112 154.568C190.078 154.568 194.41 151.372 194.41 146.401C194.41 142.991 192.368 140.222 189.297 140.009V139.724C191.889 138.925 193.842 137.043 193.842 133.972C193.842 129.657 190.149 126.372 184.396 126.372C178.714 126.372 174.666 129.497 174.524 133.901H178.927C179.051 131.646 181.413 130.065 184.609 130.065C187.787 130.065 189.581 131.681 189.581 134.114C189.581 136.386 188.018 138.091 184.68 138.091H179.993V141.855H184.68C188.018 141.855 190.149 143.684 190.149 146.401C190.149 149.508 187.397 150.804 184.041 150.804C180.756 150.804 178.554 149.508 178.359 147.04H173.885ZM200.296 164.227H204.487V149.81H204.842C205.765 151.301 207.54 154.568 212.796 154.568C219.614 154.568 224.373 149.099 224.373 140.435C224.373 131.841 219.614 126.372 212.725 126.372C207.398 126.372 205.765 129.639 204.842 131.06H204.344V126.727H200.296V164.227ZM204.415 140.364C204.415 134.256 207.114 130.136 212.228 130.136C217.555 130.136 220.183 134.611 220.183 140.364C220.183 146.188 217.484 150.804 212.228 150.804C207.185 150.804 204.415 146.543 204.415 140.364ZM238.79 154.639C243.549 154.639 246.035 152.082 246.887 150.307H247.1V154H251.29V136.031C251.29 127.366 244.685 126.372 241.205 126.372C237.086 126.372 232.398 127.793 230.268 132.764L234.245 134.185C235.168 132.196 237.352 130.065 241.347 130.065C245.2 130.065 247.1 132.107 247.1 135.605V135.747C247.1 137.771 245.04 137.594 240.069 138.233C235.009 138.89 229.487 140.009 229.487 146.259C229.487 151.585 233.606 154.639 238.79 154.639ZM239.43 150.875C236.092 150.875 233.677 149.384 233.677 146.472C233.677 143.276 236.589 142.281 239.856 141.855C241.631 141.642 246.39 141.145 247.1 140.293V144.128C247.1 147.537 244.401 150.875 239.43 150.875ZM279.18 116.5C277.849 117.619 275.86 117.619 273.072 117.601C272.167 117.601 271.172 117.601 270.089 117.636C261.78 117.849 257.66 124.17 257.66 136.315V139.227C257.66 149.312 262.561 154.568 269.876 154.568C277.174 154.568 282.021 149.277 282.021 140.719C282.021 132.125 277.103 127.58 270.729 127.58C266.982 127.58 263.484 129.142 261.638 132.551H261.282C261.851 125.52 264.479 121.756 270.16 121.543C275.203 121.33 278.825 121.472 281.311 119.057L279.18 116.5ZM269.876 150.804C264.905 150.804 261.851 146.827 261.851 140.719C261.939 134.753 264.94 131.344 269.805 131.344C274.795 131.344 277.831 134.753 277.831 140.719C277.831 146.862 274.812 150.804 269.876 150.804ZM299.51 154.568C306.897 154.568 311.868 148.957 311.868 140.506C311.868 131.983 306.897 126.372 299.51 126.372C292.124 126.372 287.153 131.983 287.153 140.506C287.153 148.957 292.124 154.568 299.51 154.568ZM299.51 150.804C293.9 150.804 291.343 145.974 291.343 140.506C291.343 135.037 293.9 130.136 299.51 130.136C305.121 130.136 307.678 135.037 307.678 140.506C307.678 145.974 305.121 150.804 299.51 150.804ZM314.7 130.634H323.72V154H327.911V130.634H336.86V126.727H314.7V130.634ZM342.972 154H347.162V142.494H350.926L359.875 154H365.273L354.123 139.866L365.131 126.727H359.733L349.932 138.588H347.162V126.727H342.972V154ZM374.018 147.821V126.727H369.827V154H374.728L387.796 132.906V154H391.987V126.727H387.157L374.018 147.821ZM402.715 154.284C404.473 154.284 405.911 152.846 405.911 151.088C405.911 149.33 404.473 147.892 402.715 147.892C400.958 147.892 399.519 149.33 399.519 151.088C399.519 152.846 400.958 154.284 402.715 154.284Z" fill="white"/>
</svg>
