<svg width="557" height="89" viewBox="0 0 557 89" fill="none" xmlns="http://www.w3.org/2000/svg">
<path d="M31.2834 30.3977H33.1584C37.5902 30.3977 38.897 28.0114 40.0902 25.2841L50.147 0.90909H46.397L39.0675 18.9773L31.0561 0.90909H27.2493L37.3061 23.1818L36.8516 24.2614C36.2266 25.6818 35.2038 27.1023 33.1016 27.1023H31.2834V30.3977ZM68.2223 8.18182H64.87V19.2472C63.2507 19.7159 61.5888 20 59.5859 20C56.8587 20 54.7564 18.4659 54.7564 15.1136V8.125H51.4041V15.1136C51.4041 20.4545 54.6428 23.125 59.5859 23.125C61.6456 23.125 63.2933 22.8551 64.87 22.3864V30H68.2223V8.18182ZM83.5206 30.4545C87.9524 30.4545 91.1911 28.2386 92.2138 24.9432L88.9751 24.0341C88.1229 26.3068 86.1484 27.4432 83.5206 27.4432C79.5859 27.4432 76.8729 24.9006 76.7166 20.2273H92.5547V18.8068C92.5547 10.6818 87.7251 7.89773 83.1797 7.89773C77.2706 7.89773 73.3501 12.5568 73.3501 19.2614C73.3501 25.9659 77.2138 30.4545 83.5206 30.4545ZM76.7166 17.3295C76.9439 13.9347 79.3445 10.9091 83.1797 10.9091C86.8161 10.9091 89.1456 13.6364 89.1456 17.3295H76.7166ZM113.847 0C112.782 0.894885 111.191 0.894885 108.961 0.88068C108.237 0.88068 107.441 0.88068 106.575 0.90909C99.9268 1.07955 96.6314 6.13636 96.6314 15.8523V18.1818C96.6314 26.25 100.552 30.4545 106.404 30.4545C112.242 30.4545 116.12 26.2216 116.12 19.375C116.12 12.5 112.185 8.86364 107.086 8.86364C104.089 8.86364 101.29 10.1136 99.8132 12.8409H99.5291C99.9837 7.21591 102.086 4.20455 106.631 4.03409C110.665 3.86364 113.563 3.97727 115.552 2.04545L113.847 0ZM106.404 27.4432C102.427 27.4432 99.9837 24.2614 99.9837 19.375C100.055 14.6023 102.455 11.875 106.347 11.875C110.339 11.875 112.768 14.6023 112.768 19.375C112.768 24.2898 110.353 27.4432 106.404 27.4432ZM124.6 8.18182H121.248V30H124.6V20.6818H135.055V30H138.407V8.18182H135.055V17.5568H124.6V8.18182ZM147.881 16.0795V8.18182H144.529V30H153.677C158.79 30 161.575 26.875 161.575 22.9545C161.575 18.9773 158.79 16.0795 153.677 16.0795H147.881ZM165.04 30H168.393V8.18182H165.04V30ZM147.881 19.2045H153.677C156.333 19.2045 158.222 20.8239 158.222 23.125C158.222 25.3267 156.333 26.875 153.677 26.875H147.881V19.2045ZM177.881 25.0568V8.18182H174.529V30H178.45L188.904 13.125V30H192.256V8.18182H188.393L177.881 25.0568ZM186.177 0.90909C186.177 2.38636 185.381 3.69318 183.393 3.69318C181.404 3.69318 180.665 2.38636 180.665 0.90909H177.54C177.54 3.97727 179.813 6.13636 183.393 6.13636C187.029 6.13636 189.302 3.97727 189.302 0.90909H186.177ZM209.646 30H212.999V11.3068H223.453V30H226.805V8.18182H209.646V30ZM232.928 38.1818H236.28V26.6477H236.564C237.303 27.8409 238.723 30.4545 242.928 30.4545C248.382 30.4545 252.189 26.0795 252.189 19.1477C252.189 12.2727 248.382 7.89773 242.871 7.89773C238.609 7.89773 237.303 10.5114 236.564 11.6477H236.166V8.18182H232.928V38.1818ZM236.223 19.0909C236.223 14.2045 238.382 10.9091 242.473 10.9091C246.734 10.9091 248.837 14.4886 248.837 19.0909C248.837 23.75 246.678 27.4432 242.473 27.4432C238.439 27.4432 236.223 24.0341 236.223 19.0909ZM266.166 30.4545C272.075 30.4545 276.053 25.9659 276.053 19.2045C276.053 12.3864 272.075 7.89773 266.166 7.89773C260.257 7.89773 256.28 12.3864 256.28 19.2045C256.28 25.9659 260.257 30.4545 266.166 30.4545ZM266.166 27.4432C261.678 27.4432 259.632 23.5795 259.632 19.2045C259.632 14.8295 261.678 10.9091 266.166 10.9091C270.655 10.9091 272.7 14.8295 272.7 19.2045C272.7 23.5795 270.655 27.4432 266.166 27.4432ZM290.317 30.4545C294.749 30.4545 297.988 28.2386 299.011 24.9432L295.772 24.0341C294.92 26.3068 292.945 27.4432 290.317 27.4432C286.383 27.4432 283.67 24.9006 283.513 20.2273H299.352V18.8068C299.352 10.6818 294.522 7.89773 289.977 7.89773C284.067 7.89773 280.147 12.5568 280.147 19.2614C280.147 25.9659 284.011 30.4545 290.317 30.4545ZM283.513 17.3295C283.741 13.9347 286.141 10.9091 289.977 10.9091C293.613 10.9091 295.942 13.6364 295.942 17.3295H283.513ZM304.451 30H307.803V20.7955H310.815L317.974 30H322.292L313.371 18.6932L322.178 8.18182H317.86L310.019 17.6705H307.803V8.18182H304.451V30ZM324.685 11.3068H331.901V30H335.254V11.3068H342.413V8.18182H324.685V11.3068ZM367.416 30.4545C372.246 30.4545 375.428 27.5 375.996 23.6364H372.643C372.018 26.0227 370.03 27.4432 367.416 27.4432C363.439 27.4432 360.882 24.1477 360.882 19.0909C360.882 14.1477 363.496 10.9091 367.416 10.9091C370.371 10.9091 372.132 12.7273 372.643 14.7159H375.996C375.428 10.625 371.962 7.89773 367.359 7.89773C361.45 7.89773 357.53 12.5568 357.53 19.2045C357.53 25.7386 361.28 30.4545 367.416 30.4545ZM379.178 11.3068H386.393V30H389.746V11.3068H396.905V8.18182H379.178V11.3068ZM403.954 38.125C406.979 38.125 409.124 36.5199 410.374 33.1818L419.664 8.23864L415.999 8.18182L409.977 25.5682H409.749L403.727 8.18182H400.09L408.158 30.1136L407.533 31.8182C406.34 35.0852 404.806 35.3977 402.363 34.7727L401.511 37.7273C401.852 37.8977 402.817 38.125 403.954 38.125ZM419.934 36.25H423.286V30H439.423V36.25H442.775V26.875H439.423V8.18182H425.559L424.82 16.8182C424.295 22.9261 423.513 25.0284 421.752 26.875H419.934V36.25ZM425.559 26.875C427.093 24.858 427.647 21.3778 428.116 16.8182L428.684 11.3068H436.07V26.875H425.559ZM456.372 30.4545C460.804 30.4545 464.043 28.2386 465.065 24.9432L461.827 24.0341C460.974 26.3068 459 27.4432 456.372 27.4432C452.438 27.4432 449.724 24.9006 449.568 20.2273H465.406V18.8068C465.406 10.6818 460.577 7.89773 456.031 7.89773C450.122 7.89773 446.202 12.5568 446.202 19.2614C446.202 25.9659 450.065 30.4545 456.372 30.4545ZM449.568 17.3295C449.795 13.9347 452.196 10.9091 456.031 10.9091C459.668 10.9091 461.997 13.6364 461.997 17.3295H449.568ZM473.858 8.18182H470.506V30H473.858V20.6818H484.312V30H487.665V8.18182H484.312V17.5568H473.858V8.18182ZM490.818 11.3068H498.034V30H501.386V11.3068H508.545V8.18182H490.818V11.3068ZM518.723 30.5114C522.53 30.5114 524.518 28.4659 525.2 27.0455H525.371V30H528.723V15.625C528.723 8.69318 523.439 7.89773 520.655 7.89773C517.359 7.89773 513.609 9.03409 511.905 13.0114L515.087 14.1477C515.825 12.5568 517.572 10.8523 520.768 10.8523C523.851 10.8523 525.371 12.4858 525.371 15.2841V15.3977C525.371 17.017 523.723 16.875 519.746 17.3864C515.697 17.9119 511.28 18.8068 511.28 23.8068C511.28 28.0682 514.575 30.5114 518.723 30.5114ZM519.234 27.5C516.564 27.5 514.632 26.3068 514.632 23.9773C514.632 21.4205 516.962 20.625 519.575 20.2841C520.996 20.1136 524.803 19.7159 525.371 19.0341V22.1023C525.371 24.8295 523.212 27.5 519.234 27.5ZM10.717 87.4432H14.0692V80.4545C19.9783 80.4545 23.9556 75.9659 23.9556 69.2045C23.9556 62.3864 19.9783 57.8977 14.0692 57.8977V50.9091H10.717V57.8977C4.80788 57.8977 0.830611 62.3864 0.830611 69.2045C0.830611 75.9659 4.80788 80.4545 10.717 80.4545V87.4432ZM14.0692 77.4432V60.9091C18.5579 60.9091 20.6033 64.8295 20.6033 69.2045C20.6033 73.5795 18.5579 77.4432 14.0692 77.4432ZM10.717 77.4432C6.22834 77.4432 4.18288 73.5795 4.18288 69.2045C4.18288 64.8295 6.22834 60.9091 10.717 60.9091V77.4432ZM35.5004 80.5114C39.3072 80.5114 41.2958 78.4659 41.9776 77.0455H42.1481V80H45.5004V65.625C45.5004 58.6932 40.2163 57.8977 37.4322 57.8977C34.1367 57.8977 30.3867 59.0341 28.6822 63.0114L31.864 64.1477C32.6026 62.5568 34.3498 60.8523 37.5458 60.8523C40.6282 60.8523 42.1481 62.4858 42.1481 65.2841V65.3977C42.1481 67.017 40.5004 66.875 36.5231 67.3864C32.4748 67.9119 28.0572 68.8068 28.0572 73.8068C28.0572 78.0682 31.3526 80.5114 35.5004 80.5114ZM36.0117 77.5C33.3413 77.5 31.4094 76.3068 31.4094 73.9773C31.4094 71.4205 33.739 70.625 36.3526 70.2841C37.7731 70.1136 41.5799 69.7159 42.1481 69.0341V72.1023C42.1481 74.8295 39.989 77.5 36.0117 77.5ZM51.619 80H54.9712V70.7955H57.9826L65.1417 80H69.4599L60.5394 68.6932L69.3462 58.1818H65.0281L57.1871 67.6705H54.9712V58.1818H51.619V80ZM75.2624 88.125C78.288 88.125 80.4329 86.5199 81.6829 83.1818L90.9727 58.2386L87.3079 58.1818L81.2852 75.5682H81.0579L75.0352 58.1818H71.3988L79.467 80.1136L78.842 81.8182C77.6488 85.0852 76.1147 85.3977 73.6715 84.7727L72.8192 87.7273C73.1602 87.8977 74.1261 88.125 75.2624 88.125ZM91.6403 80H92.7766C97.6062 80 98.9982 76.25 99.3107 69.0909L99.6516 61.3068H107.663V80H111.015V58.1818H96.4698L96.0721 67.8409C95.788 75.1705 95.0494 76.875 92.4357 76.875H91.6403V80ZM120.518 66.0795V58.1818H117.166V80H126.314C131.427 80 134.211 76.875 134.211 72.9545C134.211 68.9773 131.427 66.0795 126.314 66.0795H120.518ZM120.518 69.2045H126.314C128.97 69.2045 130.859 70.8239 130.859 73.125C130.859 75.3267 128.97 76.875 126.314 76.875H120.518V69.2045ZM135.799 61.3068H143.015V80H146.367V61.3068H153.526V58.1818H135.799V61.3068ZM166.431 80.4545C170.863 80.4545 174.101 78.2386 175.124 74.9432L171.885 74.0341C171.033 76.3068 169.059 77.4432 166.431 77.4432C162.496 77.4432 159.783 74.9006 159.627 70.2273H175.465V68.8068C175.465 60.6818 170.635 57.8977 166.09 57.8977C160.181 57.8977 156.26 62.5568 156.26 69.2614C156.26 75.9659 160.124 80.4545 166.431 80.4545ZM159.627 67.3295C159.854 63.9347 162.255 60.9091 166.09 60.9091C169.726 60.9091 172.056 63.6364 172.056 67.3295H159.627ZM178.533 61.3068H185.749V80H189.101V61.3068H196.26V58.1818H178.533V61.3068ZM206.438 80.5114C210.245 80.5114 212.233 78.4659 212.915 77.0455H213.086V80H216.438V65.625C216.438 58.6932 211.154 57.8977 208.37 57.8977C205.074 57.8977 201.324 59.0341 199.62 63.0114L202.801 64.1477C203.54 62.5568 205.287 60.8523 208.483 60.8523C211.566 60.8523 213.086 62.4858 213.086 65.2841V65.3977C213.086 67.017 211.438 66.875 207.461 67.3864C203.412 67.9119 198.995 68.8068 198.995 73.8068C198.995 78.0682 202.29 80.5114 206.438 80.5114ZM206.949 77.5C204.279 77.5 202.347 76.3068 202.347 73.9773C202.347 71.4205 204.676 70.625 207.29 70.2841C208.711 70.1136 212.517 69.7159 213.086 69.0341V72.1023C213.086 74.8295 210.926 77.5 206.949 77.5ZM234.261 80H244.772C251.647 80 254.488 76.6477 254.488 72.2727C254.488 67.6705 251.306 65.1705 248.636 65V64.7159C251.136 64.0341 253.352 62.3864 253.352 58.6364C253.352 54.375 250.511 50.9091 244.431 50.9091H234.261V80ZM237.784 76.875V66.7614H244.943C248.75 66.7614 251.136 69.3182 251.136 72.2727C251.136 74.8295 249.375 76.875 244.772 76.875H237.784ZM237.784 63.6932V54.0341H244.431C248.295 54.0341 250 56.0795 250 58.6364C250 61.7045 247.5 63.6932 244.318 63.6932H237.784ZM268.97 80.4545C273.402 80.4545 276.64 78.2386 277.663 74.9432L274.424 74.0341C273.572 76.3068 271.598 77.4432 268.97 77.4432C265.035 77.4432 262.322 74.9006 262.166 70.2273H278.004V68.8068C278.004 60.6818 273.174 57.8977 268.629 57.8977C262.72 57.8977 258.799 62.5568 258.799 69.2614C258.799 75.9659 262.663 80.4545 268.97 80.4545ZM262.166 67.3295C262.393 63.9347 264.794 60.9091 268.629 60.9091C272.265 60.9091 274.595 63.6364 274.595 67.3295H262.166ZM299.297 50C298.231 50.8949 296.64 50.8949 294.41 50.8807C293.686 50.8807 292.89 50.8807 292.024 50.9091C285.376 51.0795 282.081 56.1364 282.081 65.8523V68.1818C282.081 76.25 286.001 80.4545 291.853 80.4545C297.691 80.4545 301.569 76.2216 301.569 69.375C301.569 62.5 297.635 58.8636 292.535 58.8636C289.538 58.8636 286.74 60.1136 285.262 62.8409H284.978C285.433 57.2159 287.535 54.2045 292.081 54.0341C296.115 53.8636 299.012 53.9773 301.001 52.0455L299.297 50ZM291.853 77.4432C287.876 77.4432 285.433 74.2614 285.433 69.375C285.504 64.6023 287.904 61.875 291.797 61.875C295.788 61.875 298.217 64.6023 298.217 69.375C298.217 74.2898 295.802 77.4432 291.853 77.4432ZM319.197 65.9659H306.47V69.0909H319.197V65.9659ZM325.096 88.1818H328.448V76.6477H328.732C329.471 77.8409 330.891 80.4545 335.096 80.4545C340.55 80.4545 344.357 76.0795 344.357 69.1477C344.357 62.2727 340.55 57.8977 335.039 57.8977C330.777 57.8977 329.471 60.5114 328.732 61.6477H328.334V58.1818H325.096V88.1818ZM328.391 69.0909C328.391 64.2045 330.55 60.9091 334.641 60.9091C338.902 60.9091 341.005 64.4886 341.005 69.0909C341.005 73.75 338.846 77.4432 334.641 77.4432C330.607 77.4432 328.391 74.0341 328.391 69.0909ZM355.891 80.5114C359.698 80.5114 361.686 78.4659 362.368 77.0455H362.539V80H365.891V65.625C365.891 58.6932 360.607 57.8977 357.823 57.8977C354.527 57.8977 350.777 59.0341 349.073 63.0114L352.255 64.1477C352.993 62.5568 354.74 60.8523 357.936 60.8523C361.019 60.8523 362.539 62.4858 362.539 65.2841V65.3977C362.539 67.017 360.891 66.875 356.914 67.3864C352.865 67.9119 348.448 68.8068 348.448 73.8068C348.448 78.0682 351.743 80.5114 355.891 80.5114ZM356.402 77.5C353.732 77.5 351.8 76.3068 351.8 73.9773C351.8 71.4205 354.13 70.625 356.743 70.2841C358.164 70.1136 361.971 69.7159 362.539 69.0341V72.1023C362.539 74.8295 360.38 77.5 356.402 77.5ZM370.646 74.4318C370.76 78.0114 374.183 80.4545 378.828 80.4545C383.6 80.4545 387.066 77.8977 387.066 73.9205C387.066 71.1932 385.433 68.9773 382.975 68.8068V68.5795C385.049 67.9403 386.612 66.4347 386.612 63.9773C386.612 60.5256 383.657 57.8977 379.055 57.8977C374.51 57.8977 371.271 60.3977 371.157 63.9205H374.68C374.779 62.1165 376.669 60.8523 379.225 60.8523C381.768 60.8523 383.203 62.1449 383.203 64.0909C383.203 65.9091 381.953 67.2727 379.282 67.2727H375.532V70.2841H379.282C381.953 70.2841 383.657 71.7472 383.657 73.9205C383.657 76.4062 381.456 77.4432 378.771 77.4432C376.143 77.4432 374.382 76.4062 374.225 74.4318H370.646ZM391.775 88.1818H395.127V76.6477H395.412C396.15 77.8409 397.571 80.4545 401.775 80.4545C407.23 80.4545 411.037 76.0795 411.037 69.1477C411.037 62.2727 407.23 57.8977 401.718 57.8977C397.457 57.8977 396.15 60.5114 395.412 61.6477H395.014V58.1818H391.775V88.1818ZM395.071 69.0909C395.071 64.2045 397.23 60.9091 401.321 60.9091C405.582 60.9091 407.684 64.4886 407.684 69.0909C407.684 73.75 405.525 77.4432 401.321 77.4432C397.287 77.4432 395.071 74.0341 395.071 69.0909ZM422.571 80.5114C426.377 80.5114 428.366 78.4659 429.048 77.0455H429.218V80H432.571V65.625C432.571 58.6932 427.287 57.8977 424.502 57.8977C421.207 57.8977 417.457 59.0341 415.752 63.0114L418.934 64.1477C419.673 62.5568 421.42 60.8523 424.616 60.8523C427.699 60.8523 429.218 62.4858 429.218 65.2841V65.3977C429.218 67.017 427.571 66.875 423.593 67.3864C419.545 67.9119 415.127 68.8068 415.127 73.8068C415.127 78.0682 418.423 80.5114 422.571 80.5114ZM423.082 77.5C420.412 77.5 418.48 76.3068 418.48 73.9773C418.48 71.4205 420.809 70.625 423.423 70.2841C424.843 70.1136 428.65 69.7159 429.218 69.0341V72.1023C429.218 74.8295 427.059 77.5 423.082 77.5ZM454.882 50C453.817 50.8949 452.226 50.8949 449.996 50.8807C449.272 50.8807 448.476 50.8807 447.61 50.9091C440.962 51.0795 437.667 56.1364 437.667 65.8523V68.1818C437.667 76.25 441.587 80.4545 447.439 80.4545C453.277 80.4545 457.155 76.2216 457.155 69.375C457.155 62.5 453.221 58.8636 448.121 58.8636C445.124 58.8636 442.326 60.1136 440.848 62.8409H440.564C441.019 57.2159 443.121 54.2045 447.667 54.0341C451.701 53.8636 454.598 53.9773 456.587 52.0455L454.882 50ZM447.439 77.4432C443.462 77.4432 441.019 74.2614 441.019 69.375C441.09 64.6023 443.49 61.875 447.382 61.875C451.374 61.875 453.803 64.6023 453.803 69.375C453.803 74.2898 451.388 77.4432 447.439 77.4432ZM471.147 80.4545C477.056 80.4545 481.033 75.9659 481.033 69.2045C481.033 62.3864 477.056 57.8977 471.147 57.8977C465.238 57.8977 461.26 62.3864 461.26 69.2045C461.26 75.9659 465.238 80.4545 471.147 80.4545ZM471.147 77.4432C466.658 77.4432 464.613 73.5795 464.613 69.2045C464.613 64.8295 466.658 60.9091 471.147 60.9091C475.635 60.9091 477.681 64.8295 477.681 69.2045C477.681 73.5795 475.635 77.4432 471.147 77.4432ZM483.299 61.3068H490.515V80H493.867V61.3068H501.026V58.1818H483.299V61.3068ZM505.916 80H509.268V70.7955H512.279L519.439 80H523.757L514.836 68.6932L523.643 58.1818H519.325L511.484 67.6705H509.268V58.1818H505.916V80ZM530.752 75.0568V58.1818H527.4V80H531.321L541.775 63.125V80H545.127V58.1818H541.264L530.752 75.0568ZM553.711 80.2273C555.117 80.2273 556.267 79.0767 556.267 77.6705C556.267 76.2642 555.117 75.1136 553.711 75.1136C552.304 75.1136 551.154 76.2642 551.154 77.6705C551.154 79.0767 552.304 80.2273 553.711 80.2273Z" fill="white"/>
</svg>
